<?xml version="1.0" encoding="utf-8"?>
<!-- Generator: Adobe Illustrator 13.0.0, SVG Export Plug-In . SVG Version: 6.00 Build 14948)  -->
<!DOCTYPE svg PUBLIC "-//W3C//DTD SVG 1.1//EN" "http://www.w3.org/Graphics/SVG/1.1/DTD/svg11.dtd">
<svg version="1.1"
	 id="svg16" xmlns:sodipodi="http://sodipodi.sourceforge.net/DTD/sodipodi-0.dtd" xmlns:rdf="http://www.w3.org/1999/02/22-rdf-syntax-ns#" xmlns:cc="http://creativecommons.org/ns#" xmlns:svg="http://www.w3.org/2000/svg" xmlns:inkscape="http://www.inkscape.org/namespaces/inkscape" xmlns:dc="http://purl.org/dc/elements/1.1/" inkscape:export-ydpi="24" inkscape:export-xdpi="24" inkscape:version="0.92.2 5c3e80d, 2017-08-06" sodipodi:docname="logo-full.svg" inkscape:export-filename="/Users/josh/Documents/pasta/icons/logo-full.png"
	 xmlns="http://www.w3.org/2000/svg" xmlns:xlink="http://www.w3.org/1999/xlink" x="0px" y="0px" width="1000px" height="288px"
	 viewBox="0 0 1000 288" enable-background="new 0 0 1000 288" xml:space="preserve">
<sodipodi:namedview  units="px" inkscape:window-width="1440" inkscape:document-units="mm" inkscape:current-layer="layer4" id="base" borderopacity="1.0" bordercolor="#666666" inkscape:cx="557.4196" pagecolor="#ffffff" fit-margin-left="0" inkscape:zoom="0.7" showgrid="false" inkscape:cy="58.33354" inkscape:pageopacity="0.0" inkscape:pageshadow="2" inkscape:window-x="0" inkscape:window-height="851" inkscape:window-y="1" inkscape:window-maximized="1">
	</sodipodi:namedview>
<g id="layer4" inkscape:label="PASTA" inkscape:groupmode="layer">
	<g id="flowRoot4646" transform="matrix(0.26458333,0,0,0.26458333,2.1166668,6.35)">
	</g>
	<g id="g4613" transform="matrix(0.80528073,0,0,0.80528073,10.185495,7.5742924)">
		<path id="path104" inkscape:connector-curvature="0" fill="#FFBC00" d="M121.525,109.588l32.324,17.677
			c0,0,11.364,9.344,14.395,14.648c3.031,5.303,7.071,11.111,9.596,12.374c2.526,1.262,6.819,3.283,12.628-6.314
			c5.808-9.596,13.637-19.193,23.233-23.991c9.596-4.799,29.295-15.658,29.295-15.658s4.545-0.252,6.818,1.768
			s2.02,0.252,0.506,6.061c-1.516,5.808-6.061,8.839-6.061,8.839l16.162,4.041l-8.08,11.364l13.385,4.798l-8.587,10.859
			l12.122,9.344l-10.86,8.081l11.112,10.354l-13.385,6.819l9.597,12.374l-14.648,3.787l6.567,12.374l-15.657,1.262l4.797,9.597
			c0,0,1.768,2.525-0.758,5.303c-2.525,2.778-4.545,3.535-8.838,1.515s-32.324-21.213-32.324-21.213s-8.839-10.102-11.112-15.153
			s-5.051-11.616-12.374-11.616c-7.323,0-8.839,4.293-11.616,10.354c-2.778,6.061-5.809,11.364-15.911,18.688
			s-33.082,18.183-33.082,18.183s-3.535,2.02-6.819-1.768c-3.283-3.788,1.264-8.586,1.264-8.586l4.545-7.072l-16.415-1.009
			l7.071-13.132l-14.142-3.535l10.86-11.618l-13.637-7.07l12.121-9.85l-11.616-9.092l13.132-7.829l-10.102-11.364l14.395-3.283
			l-8.586-12.627l16.415-2.525l-7.325-9.091c0,0-1.515-3.536,1.768-6.061C116.978,108.073,118.999,108.325,121.525,109.588
			L121.525,109.588z"/>
	</g>
	<g id="flowRoot18" transform="matrix(1.2448203,0,0,-1.7608466,-37.688708,161.91085)">
	</g>
	<g id="flowRoot99" transform="matrix(1.2448203,0,0,-1.7608466,15.748011,161.91085)">
	</g>
</g>
<g>
	<path fill="#0099FC" d="M91.658,264.5c-16.17,0-28.238-4.183-36.206-12.549c-7.969-8.367-11.952-21.628-11.952-39.789V180.13
		c0-8.658-1.798-15.176-5.391-19.548c-3.593-4.37-9.569-6.559-17.926-6.559h-7.382v-23.835h7.382c4.218,0,7.81-0.483,10.78-1.45
		c2.968-0.965,5.39-2.459,7.264-4.478c1.875-2.018,3.223-4.603,4.042-7.755c0.82-3.153,1.23-6.916,1.23-11.288V83.021
		c0-8.658,0.918-16.269,2.753-22.827c1.835-6.558,4.706-12.022,8.612-16.395c3.906-4.371,8.886-7.672,14.94-9.9
		c6.052-2.227,13.337-3.342,21.852-3.342h9.842v23.709h-7.382c-3.749,0-7.129,0.485-10.135,1.451
		c-3.007,0.966-5.606,2.543-7.791,4.729c-2.188,2.188-3.867,5.066-5.039,8.639c-1.172,3.575-1.757,8.008-1.757,13.305v22.07
		c0,6.306-0.488,11.687-1.465,16.143c-0.978,4.458-2.479,8.179-4.511,11.161c-2.034,2.985-4.611,5.297-7.733,6.937
		c-3.125,1.639-6.797,2.795-11.015,3.468c8.358,1.009,14.568,4.521,18.63,10.53c4.06,6.012,6.093,15.241,6.093,27.683v32.032
		c0,5.466,0.585,10.006,1.757,13.621c1.172,3.613,2.851,6.514,5.039,8.701c2.185,2.187,4.784,3.74,7.791,4.667
		c3.006,0.925,6.386,1.387,10.135,1.387h7.382v23.71H91.658z"/>
</g>
<g>
	<path fill="#0099FC" d="M208.801,264.5v-23.71h7.383c3.748,0,7.129-0.462,10.135-1.387c3.008-0.927,5.605-2.48,7.791-4.667
		c2.188-2.188,3.867-5.088,5.039-8.701c1.172-3.615,1.758-8.155,1.758-13.621v-32.032c0-12.441,2.032-21.671,6.092-27.683
		c4.063-6.01,10.272-9.521,18.631-10.53c-4.218-0.673-7.89-1.829-11.015-3.468c-3.122-1.64-5.699-3.952-7.733-6.937
		c-2.031-2.982-3.533-6.703-4.51-11.161c-0.978-4.456-1.465-9.836-1.465-16.143v-22.07c0-5.297-0.586-9.73-1.758-13.305
		c-1.172-3.573-2.852-6.451-5.039-8.639c-2.186-2.186-4.783-3.763-7.791-4.729c-3.006-0.965-6.387-1.451-10.135-1.451h-7.383V30.558
		h9.842c8.516,0,15.801,1.116,21.853,3.342c6.055,2.228,11.034,5.529,14.94,9.9c3.906,4.372,6.777,9.837,8.612,16.395
		c1.835,6.558,2.753,14.169,2.753,22.827v22.196c0,4.372,0.41,8.134,1.23,11.288c0.819,3.153,2.168,5.738,4.042,7.755
		c1.875,2.018,4.296,3.513,7.265,4.478c2.97,0.967,6.562,1.45,10.779,1.45h7.383v23.835h-7.383c-8.357,0-14.333,2.188-17.926,6.559
		c-3.593,4.372-5.391,10.89-5.391,19.548v32.032c0,18.161-3.983,31.422-11.952,39.789c-7.968,8.366-20.035,12.549-36.206,12.549
		H208.801z"/>
</g>
<g>
	<path fill="#FF4100" d="M368.531,164.387v49.512H332.8V80.598h59.15c13.193,0,23.29,1.254,30.29,3.76
		c6.998,2.507,13.248,6.982,18.745,13.428s8.246,14.355,8.246,23.73c0,6.577-1.467,12.988-4.397,19.238
		c-2.932,6.25-7.074,11.166-12.424,14.746c-5.351,3.581-10.537,5.957-15.557,7.129c-5.021,1.172-12.882,1.758-23.583,1.758H368.531z
		 M367.322,140.168h22.869c8.721,0,14.842-1.79,18.36-5.371c3.518-3.58,5.277-7.681,5.277-12.305c0-5.403-1.961-9.7-5.882-12.891
		c-3.922-3.189-9.877-4.785-17.866-4.785h-22.758V140.168z"/>
	<path fill="#FF4100" d="M539.046,80.598l46.976,133.301H548.24l-9.246-27.441h-48.521l-9.408,27.441h-30.823l48.103-133.301
		H539.046z M498.906,161.848h31.797l-15.76-46.777L498.906,161.848z"/>
	<path fill="#FF4100" d="M711.49,109.895l-29.904,8.887c-4.022-10.547-12.542-15.82-25.558-15.82
		c-13.895,0-20.839,4.004-20.839,12.012c0,3.19,1.299,5.893,3.898,8.105c2.597,2.214,8.47,4.137,17.619,5.768
		c15.297,2.742,26.495,5.513,33.597,8.312c7.101,2.799,13.083,7.306,17.952,13.522c4.868,6.217,7.303,13.164,7.303,20.845
		c0,12.043-5.219,22.457-15.653,31.244c-10.437,8.788-25.905,13.181-46.41,13.181c-15.378,0-28.469-3.108-39.271-9.326
		c-10.802-6.217-17.923-15.445-21.363-27.686l32.543-6.543c3.657,12.436,13.826,18.652,30.503,18.652
		c8.046,0,14.044-1.383,17.994-4.15c3.95-2.767,5.925-6.07,5.925-9.912c0-3.906-1.793-6.934-5.379-9.082
		c-3.589-2.148-10.504-4.167-20.749-6.058c-19.104-3.519-32.72-8.322-40.845-14.409c-8.127-6.086-12.187-14.988-12.187-26.706
		c0-11.847,4.849-21.84,14.553-29.978c9.701-8.136,22.864-12.206,39.486-12.206C684.141,78.547,703.07,88.996,711.49,109.895z"/>
	<path fill="#FF4100" d="M840.367,80.598v26.367h-37.161v106.934h-35.622V106.965h-37.381V80.598H840.367z"/>
	<path fill="#FF4100" d="M924.245,80.598l46.978,133.301H933.44l-9.246-27.441h-48.521l-9.407,27.441h-30.824l48.102-133.301
		H924.245z M884.107,161.848h31.798l-15.761-46.777L884.107,161.848z"/>
</g>
</svg>