<?xml version="1.0" encoding="utf-8"?>
<!-- Generator: Adobe Illustrator 13.0.0, SVG Export Plug-In . SVG Version: 6.00 Build 14948)  -->
<!DOCTYPE svg PUBLIC "-//W3C//DTD SVG 1.1//EN" "http://www.w3.org/Graphics/SVG/1.1/DTD/svg11.dtd">
<svg version="1.1"
	 id="svg16" xmlns:sodipodi="http://sodipodi.sourceforge.net/DTD/sodipodi-0.dtd" xmlns:rdf="http://www.w3.org/1999/02/22-rdf-syntax-ns#" xmlns:cc="http://creativecommons.org/ns#" xmlns:svg="http://www.w3.org/2000/svg" xmlns:inkscape="http://www.inkscape.org/namespaces/inkscape" xmlns:dc="http://purl.org/dc/elements/1.1/" inkscape:export-ydpi="103.33334" inkscape:export-xdpi="103.33334" inkscape:version="0.92.2 5c3e80d, 2017-08-06" sodipodi:docname="logo.svg" inkscape:export-filename="/Users/josh/Documents/pasta/icons/logo.png"
	 xmlns="http://www.w3.org/2000/svg" xmlns:xlink="http://www.w3.org/1999/xlink" x="0px" y="0px" width="288px" height="288px"
	 viewBox="0 0 288 288" enable-background="new 0 0 288 288" xml:space="preserve">
<sodipodi:namedview  units="px" inkscape:window-width="1440" inkscape:document-units="mm" inkscape:current-layer="svg16" id="base" borderopacity="1.0" bordercolor="#666666" inkscape:cx="25.618879" pagecolor="#ffffff" fit-margin-left="0" inkscape:zoom="0.98994949" showgrid="false" inkscape:cy="58.33354" inkscape:pageopacity="0.0" inkscape:pageshadow="2" inkscape:window-x="0" inkscape:window-height="851" inkscape:window-y="1" inkscape:window-maximized="1">
	</sodipodi:namedview>
<g id="layer3" inkscape:label="pasta" inkscape:groupmode="layer">
	<g id="g4613" transform="matrix(0.80528072,0,0,0.80528072,7.0104949,7.5742924)">
		<path id="path104" inkscape:connector-curvature="0" fill="#FFBC00" d="M110.566,109.588l32.325,17.677
			c0,0,11.364,9.344,14.395,14.648c3.031,5.303,7.071,11.111,9.596,12.374c2.525,1.262,6.818,3.283,12.627-6.314
			c5.808-9.596,13.637-19.193,23.234-23.991c9.595-4.799,29.294-15.658,29.294-15.658s4.545-0.252,6.818,1.768
			s2.02,0.252,0.506,6.061c-1.515,5.808-6.061,8.839-6.061,8.839l16.162,4.041l-8.08,11.364l13.385,4.798l-8.586,10.859
			l12.121,9.344l-10.86,8.081l11.113,10.354l-13.386,6.819l9.597,12.374l-14.647,3.787l6.566,12.374l-15.657,1.262l4.799,9.597
			c0,0,1.767,2.525-0.759,5.303c-2.525,2.778-4.545,3.535-8.838,1.515s-32.324-21.213-32.324-21.213s-8.839-10.102-11.112-15.153
			s-5.051-11.616-12.374-11.616c-7.323,0-8.839,4.293-11.616,10.354c-2.778,6.061-5.809,11.364-15.91,18.688
			c-10.102,7.323-33.082,18.183-33.082,18.183s-3.536,2.02-6.819-1.768c-3.283-3.788,1.263-8.586,1.263-8.586l4.546-7.072
			l-16.415-1.009l7.071-13.132l-14.142-3.535l10.859-11.618l-13.637-7.07l12.122-9.85l-11.616-9.092l13.132-7.829L86.07,144.185
			l14.394-3.283l-8.586-12.627l16.415-2.525l-7.324-9.091c0,0-1.515-3.536,1.768-6.061
			C106.02,108.073,108.04,108.325,110.566,109.588L110.566,109.588z"/>
	</g>
</g>
<g id="layer1" transform="translate(0,-220.79998)" inkscape:label="braces" inkscape:groupmode="layer">
	<g id="flowRoot18" transform="matrix(1.2448203,0,0,-1.7608466,-40.334543,382.71083)">
	</g>
	<g id="flowRoot99" transform="matrix(1.2448203,0,0,-1.7608466,12.043843,382.71083)">
	</g>
</g>
<g>
	<path fill="#0099FC" d="M80.658,261.5c-16.17,0-28.238-4.183-36.206-12.549c-7.969-8.367-11.952-21.628-11.952-39.789V177.13
		c0-8.658-1.798-15.176-5.391-19.548c-3.593-4.37-9.569-6.559-17.926-6.559H1.801v-23.835h7.382c4.218,0,7.81-0.483,10.78-1.45
		c2.968-0.965,5.39-2.459,7.264-4.478c1.875-2.018,3.223-4.603,4.042-7.755c0.82-3.153,1.23-6.916,1.23-11.288V80.021
		c0-8.658,0.918-16.269,2.753-22.827c1.835-6.558,4.706-12.022,8.612-16.395c3.906-4.371,8.886-7.672,14.94-9.9
		c6.052-2.227,13.337-3.342,21.852-3.342H90.5v23.709h-7.382c-3.749,0-7.129,0.485-10.135,1.451
		c-3.007,0.966-5.606,2.543-7.791,4.729c-2.188,2.188-3.867,5.066-5.039,8.639c-1.172,3.575-1.757,8.008-1.757,13.305v22.07
		c0,6.306-0.488,11.687-1.465,16.143c-0.978,4.458-2.479,8.179-4.511,11.161c-2.034,2.985-4.611,5.297-7.733,6.937
		c-3.125,1.639-6.797,2.795-11.015,3.468c8.358,1.009,14.568,4.521,18.63,10.53c4.06,6.012,6.093,15.241,6.093,27.683v32.032
		c0,5.466,0.585,10.006,1.757,13.621c1.172,3.613,2.851,6.514,5.039,8.701c2.185,2.187,4.784,3.74,7.791,4.667
		c3.006,0.925,6.386,1.387,10.135,1.387H90.5v23.71H80.658z"/>
</g>
<g>
	<path fill="#0099FC" d="M197.801,261.5v-23.71h7.383c3.748,0,7.129-0.462,10.135-1.387c3.008-0.927,5.605-2.48,7.791-4.667
		c2.188-2.188,3.867-5.088,5.039-8.701c1.172-3.615,1.758-8.155,1.758-13.621v-32.032c0-12.441,2.032-21.671,6.092-27.683
		c4.063-6.009,10.272-9.521,18.631-10.53c-4.218-0.672-7.89-1.829-11.015-3.468c-3.122-1.64-5.699-3.952-7.733-6.937
		c-2.031-2.982-3.533-6.703-4.51-11.161c-0.978-4.456-1.465-9.836-1.465-16.143v-22.07c0-5.297-0.586-9.73-1.758-13.305
		c-1.172-3.573-2.852-6.451-5.039-8.639c-2.186-2.186-4.783-3.763-7.791-4.729c-3.006-0.965-6.387-1.451-10.135-1.451h-7.383V27.558
		h9.842c8.516,0,15.801,1.116,21.853,3.342c6.055,2.228,11.034,5.529,14.94,9.9c3.906,4.372,6.777,9.837,8.612,16.395
		c1.835,6.558,2.753,14.169,2.753,22.827v22.196c0,4.372,0.41,8.134,1.23,11.288c0.819,3.153,2.168,5.738,4.042,7.755
		c1.875,2.018,4.296,3.513,7.265,4.478c2.97,0.967,6.562,1.45,10.779,1.45h7.383v23.835h-7.383c-8.357,0-14.333,2.188-17.926,6.559
		c-3.593,4.372-5.391,10.89-5.391,19.548v32.032c0,18.161-3.983,31.422-11.952,39.789c-7.968,8.366-20.035,12.549-36.206,12.549
		H197.801z"/>
</g>
</svg>